<?xml version="1.0" encoding="UTF-8" standalone="no"?><!DOCTYPE svg PUBLIC "-//W3C//DTD SVG 1.1//EN" "http://www.w3.org/Graphics/SVG/1.1/DTD/svg11.dtd"><svg width="100%" height="100%" viewBox="0 0 123 123" version="1.1" xmlns="http://www.w3.org/2000/svg" xmlns:xlink="http://www.w3.org/1999/xlink" xml:space="preserve" xmlns:serif="http://www.serif.com/" style="fill-rule:evenodd;clip-rule:evenodd;stroke-linejoin:round;stroke-miterlimit:2;"><g><path d="M86.222,18.976c-4.827,4.95 -5.209,6.301 -7.628,5.162c-39.561,-18.626 -75.536,23.707 -56.984,58.294c5.741,10.703 11.504,13.706 15.258,16.509c3.776,1.94 8.442,5.482 20.418,6.467c8.211,0.675 28.587,-1.969 40.081,-22.952c10.888,-19.877 0.581,-36.95 1.529,-38.803c0.053,-0.104 10.529,-10.782 10.806,-10.951c2.651,-1.619 18.317,30.839 1.439,59.152c-28.925,48.521 -94.48,32.954 -107.876,-10.188c-17.546,-56.509 42.565,-97.008 87.593,-69.61c2.101,1.279 -0.424,2.876 -4.635,6.92Z" style="fill:#e94560;"/><path d="M85.462,50.144c-2.511,2.633 -4.12,5.512 -6.249,3.409c-4.582,-4.524 -6.525,-7.516 -8.114,-5.975c-1.528,1.481 -5.956,5.252 -4.795,6.5c6.397,6.875 9.68,7.044 6.553,10.197c-24.099,24.298 -24.527,25.408 -26.021,24.127c-0.326,-0.28 -24.469,-24.482 -24.866,-24.9c-1.134,-1.195 -0.243,-1.681 19.711,-21.686c3.489,-3.498 5.856,-6.378 6.841,-5.492c9.902,8.906 9.896,9.537 9.162,10.364c-1.197,1.348 -4.29,5.457 -5.931,3.812c-2.64,-2.647 -2.919,-4.975 -5.567,-2.306c-12.895,12.997 -13.598,12.646 -13.718,14.222c-0.125,1.646 0.449,1.465 14.26,14.906c1.89,1.84 4.603,-2.235 6.445,-4.1c1.149,-1.163 1.383,-1.446 0.26,-2.606c-7.078,-7.314 -8.523,-7.338 -7.241,-8.749c1.016,-1.119 25.342,-25.537 25.437,-25.581c0.601,-0.28 0.817,-0.297 2.333,0.899c2.039,0.177 1.807,-0.694 20.729,-19.575c3.249,-3.242 6.011,-4.932 4.175,-6.751c-2.571,-2.547 -6.498,-5.551 -4.299,-5.944c6.043,-1.08 23.52,-3.509 25.568,-3.794c4.074,-0.384 2.252,1.917 1.846,5.233c-2.317,18.923 -2.484,18.888 -2.593,20.54c-0.017,0.255 -0.268,4.059 -1.474,2.835c-4.648,-4.715 -5.185,-7.11 -8.269,-4.013c-1.044,1.048 -7.731,7.764 -12.977,13.167c-0.885,0.912 -4.632,4.771 -11.206,11.258Zm-27.47,14.044c2.739,2.467 3.832,2.066 5.326,-1.253c0.429,-0.953 -2.8,-4.685 -4.028,-3.486c-2.151,2.099 -3.355,2.522 -1.298,4.739Zm11.648,22.605c-1.795,-1.765 -7.276,-6.975 -7.375,-7.573c-0.119,-0.721 3.613,-4.39 3.966,-4.737c1.51,-1.484 3.793,1.818 4.798,2.826c2.058,2.064 2.231,0.188 4.296,-1.85c6.681,-6.596 6.555,-6.7 7.161,-7.244c2.651,-2.383 -3.639,-1.582 -4.623,-1.616c-1.542,-0.054 -1.131,-6.245 -1.035,-6.643c0.326,-1.339 0.825,-1.36 17.194,-1.102c1.703,0.027 5.263,3.281 4.077,4.567c-0.902,0.979 -24.311,24.516 -24.776,24.956c-1.8,1.703 -1.888,0.148 -3.682,-1.584Z" style="fill:#e94560;"/></g></svg>