<?xml version="1.0" encoding="UTF-8" standalone="no"?>
<!DOCTYPE svg PUBLIC "-//W3C//DTD SVG 1.1//EN" "http://www.w3.org/Graphics/SVG/1.1/DTD/svg11.dtd">
<svg width="100%" height="100%" viewBox="0 0 512 512" version="1.1" xmlns="http://www.w3.org/2000/svg" xmlns:xlink="http://www.w3.org/1999/xlink" xml:space="preserve" xmlns:serif="http://www.serif.com/" style="fill-rule:evenodd;clip-rule:evenodd;stroke-linejoin:round;stroke-miterlimit:2;">
    <g transform="matrix(2.778643,0,0,2.778643,-447.380743,-285.942888)">
        <path d="M291.671,187.47L332.636,187.47L340.205,195.039L280.739,254.504L259.3,232.814L271.068,221.046L280.97,230.948L307.949,203.97L291.671,203.97L291.671,187.47ZM285.002,195.039L225.537,254.504L166.072,195.039L225.537,135.573L247.24,157.276L235.885,168.632L226.383,159.129L190.473,195.039L226.383,230.948L241.783,215.548L221.274,195.039L280.739,135.573L311.599,166.433L300.04,177.991L280.97,159.129L265.032,175.068L285.002,195.039ZM253.289,211.821L270.072,195.039L253.289,178.256L236.507,195.039L253.289,211.821Z" style="fill:rgb(233,69,96);"/>
    </g>
</svg>
